<?xml version="1.0" standalone="no"?>
<!DOCTYPE svg PUBLIC "-//W3C//DTD SVG 20010904//EN"
 "http://www.w3.org/TR/2001/REC-SVG-20010904/DTD/svg10.dtd">
<svg version="1.0" xmlns="http://www.w3.org/2000/svg"
 width="1734.000000pt" height="1738.000000pt" viewBox="0 0 1734.000000 1738.000000"
 preserveAspectRatio="xMidYMid meet">

<g transform="translate(0.000000,1738.000000) scale(0.100000,-0.100000)"
fill="#000000" stroke="none">
<path d="M13715 10850 c-3 -11 -15 -20 -26 -20 -12 0 -23 -10 -29 -25 -5 -14
-16 -25 -24 -23 -8 2 -25 -7 -38 -19 -57 -56 -80 -73 -94 -73 -8 0 -19 -11
-24 -25 -5 -14 -16 -25 -24 -25 -8 0 -18 -9 -21 -20 -3 -11 -13 -20 -21 -20
-8 0 -19 -11 -24 -25 -5 -14 -16 -25 -25 -25 -9 0 -20 -11 -25 -25 -5 -14 -16
-25 -24 -25 -8 0 -18 -9 -21 -20 -3 -11 -12 -20 -19 -20 -13 0 -36 -41 -36
-65 0 -7 -9 -16 -19 -20 -10 -3 -22 -17 -25 -30 -4 -14 -13 -25 -21 -25 -9 0
-20 -11 -24 -24 -5 -13 -17 -26 -25 -29 -9 -4 -16 -11 -16 -17 0 -6 -11 -23
-25 -38 -14 -15 -25 -32 -25 -39 0 -7 -8 -20 -19 -30 -10 -10 -22 -33 -26 -51
-4 -18 -15 -38 -26 -45 -10 -6 -19 -19 -19 -29 0 -9 -11 -30 -25 -46 -14 -17
-25 -37 -25 -46 0 -9 -6 -16 -14 -16 -16 0 -26 -21 -26 -57 0 -14 -11 -38 -24
-53 -13 -16 -26 -46 -30 -69 -4 -25 -13 -44 -26 -51 -15 -8 -20 -21 -20 -50 0
-24 -6 -42 -15 -48 -9 -4 -19 -33 -25 -68 -5 -32 -17 -64 -25 -70 -9 -7 -19
-41 -25 -90 -6 -44 -16 -83 -23 -89 -8 -6 -18 -53 -24 -119 -7 -69 -16 -112
-25 -117 -10 -7 -13 -73 -13 -326 0 -273 2 -322 16 -348 9 -17 19 -67 22 -113
6 -83 23 -158 39 -176 4 -6 8 -26 8 -46 0 -20 9 -54 20 -75 11 -22 25 -68 31
-102 7 -39 16 -63 24 -63 7 0 14 -18 18 -46 2 -25 14 -58 24 -73 11 -14 23
-39 27 -56 4 -16 16 -38 27 -48 11 -10 19 -31 19 -50 0 -20 8 -39 19 -49 11
-9 23 -32 26 -52 4 -20 14 -36 24 -39 12 -3 20 -18 25 -46 4 -27 11 -41 21
-41 8 0 15 -9 15 -20 0 -10 9 -24 20 -30 11 -6 22 -26 26 -46 4 -21 16 -41 30
-51 13 -8 24 -22 24 -29 0 -8 5 -14 11 -14 5 0 19 -20 30 -45 11 -25 26 -45
34 -45 9 0 15 -9 15 -21 0 -12 8 -23 20 -26 11 -3 20 -12 20 -20 0 -20 68
-107 91 -115 10 -4 19 -17 19 -28 0 -13 7 -20 20 -20 14 0 20 -7 20 -21 0 -12
8 -23 20 -26 11 -3 20 -12 20 -20 0 -8 9 -17 21 -20 11 -3 25 -16 30 -29 5
-14 17 -24 28 -24 11 0 25 -9 31 -20 6 -11 21 -22 34 -26 13 -3 28 -16 34 -30
7 -15 17 -22 26 -18 10 4 17 -3 22 -20 4 -19 13 -26 30 -26 17 0 24 -6 24 -20
0 -23 -6 -23 263 -22 97 1 182 4 187 7 6 3 10 21 10 39 0 26 -5 35 -21 39 -11
3 -23 14 -26 25 -3 11 -16 23 -29 26 -15 4 -24 14 -24 26 0 13 -7 20 -19 20
-12 0 -21 9 -25 25 -4 14 -12 25 -19 23 -13 -3 -61 41 -77 72 -6 11 -17 20
-25 20 -8 0 -15 5 -15 10 0 6 -11 20 -25 32 -14 12 -25 28 -25 35 0 7 -7 13
-15 13 -9 0 -20 11 -25 25 -5 14 -16 25 -25 25 -9 0 -15 9 -15 21 0 12 -8 23
-19 26 -12 3 -22 17 -26 37 -4 17 -16 40 -26 51 -51 53 -68 76 -74 105 -4 16
-12 30 -19 30 -8 0 -19 20 -26 45 -7 25 -19 45 -26 45 -8 0 -14 8 -14 19 0 31
-21 81 -35 81 -8 0 -16 17 -20 41 -5 29 -13 43 -26 46 -14 4 -19 14 -19 39 0
20 -8 41 -19 51 -10 10 -22 38 -26 63 -10 67 -15 80 -31 80 -9 0 -14 11 -14
34 0 44 -9 66 -26 66 -8 0 -14 1 -14 3 -2 62 -23 172 -34 181 -10 7 -18 37
-22 81 -3 39 -13 81 -21 94 -10 15 -19 67 -24 135 -5 61 -14 140 -20 176 -20
110 -22 355 -5 430 9 36 20 123 25 194 5 80 13 131 21 136 6 4 16 45 22 91 6
50 16 87 24 94 8 5 17 35 20 65 4 30 15 70 25 88 10 18 22 51 25 73 4 23 13
43 20 46 8 3 19 32 26 65 8 38 19 63 30 69 12 6 18 21 18 44 0 22 7 39 19 47
11 8 23 31 26 52 5 25 14 40 26 43 11 3 19 12 19 20 0 8 11 29 25 47 14 18 25
40 25 48 0 8 9 23 19 32 11 10 23 32 26 48 4 18 15 32 26 35 11 3 19 14 19 25
0 11 8 22 18 25 10 2 25 22 35 44 9 21 21 39 26 39 5 0 14 14 20 30 5 17 17
30 25 30 9 0 16 9 16 20 0 13 7 20 20 20 14 0 20 7 20 21 0 12 8 23 20 26 11
3 20 10 20 15 0 16 114 123 127 120 7 -2 15 9 19 23 4 15 13 25 24 25 10 0 20
9 23 21 3 11 15 23 26 26 11 3 23 13 26 23 3 10 15 20 25 23 13 3 20 14 20 30
0 59 7 57 -230 57 -210 0 -219 -1 -225 -20z"/>
<path d="M14590 10830 c0 -28 5 -43 16 -47 8 -3 20 -16 25 -29 4 -13 15 -24
23 -24 8 0 18 -9 21 -20 3 -11 15 -20 26 -20 10 0 19 -7 19 -15 0 -9 11 -20
24 -25 13 -5 27 -18 31 -29 3 -12 13 -21 21 -21 8 0 19 -11 24 -25 5 -14 16
-25 25 -25 8 0 15 -9 15 -19 0 -12 9 -21 25 -25 16 -4 25 -13 25 -26 0 -13 7
-20 20 -20 14 0 20 -7 20 -21 0 -12 8 -23 20 -26 11 -3 24 -20 31 -40 6 -19
17 -37 24 -40 8 -2 18 -18 24 -34 5 -16 17 -29 25 -29 9 0 16 -8 16 -18 0 -9
9 -23 19 -29 11 -7 24 -28 31 -47 6 -20 18 -36 25 -36 8 0 16 -17 20 -40 4
-24 14 -44 26 -50 10 -6 19 -19 19 -29 0 -10 9 -26 20 -36 11 -10 22 -33 26
-51 3 -18 11 -32 16 -31 6 1 17 -20 24 -47 7 -27 21 -61 32 -75 10 -14 22 -42
26 -63 3 -20 13 -38 20 -41 8 -3 17 -28 21 -56 4 -28 10 -51 15 -51 12 0 28
-50 33 -104 3 -30 12 -55 21 -61 9 -7 16 -26 16 -42 0 -47 21 -147 32 -155 6
-3 17 -68 24 -145 7 -76 18 -172 24 -213 14 -92 15 -276 2 -311 -6 -14 -16
-98 -22 -185 -12 -157 -21 -204 -39 -204 -5 0 -12 -38 -16 -85 -5 -62 -11 -87
-23 -94 -11 -6 -17 -28 -20 -72 -3 -39 -12 -74 -22 -89 -10 -14 -21 -46 -25
-72 -5 -32 -12 -48 -25 -51 -13 -3 -18 -18 -22 -56 -3 -34 -12 -58 -25 -70
-11 -11 -23 -38 -27 -60 -4 -26 -12 -41 -21 -41 -9 0 -16 -16 -21 -45 -3 -26
-12 -45 -19 -45 -14 0 -25 -22 -25 -50 0 -11 -8 -27 -19 -37 -10 -10 -22 -33
-26 -51 -4 -18 -15 -38 -26 -45 -10 -6 -19 -20 -19 -29 0 -10 -8 -22 -18 -27
-10 -5 -24 -25 -32 -45 -7 -20 -19 -36 -26 -36 -6 0 -15 -11 -18 -25 -4 -14
-12 -25 -20 -25 -7 0 -16 -13 -19 -30 -4 -16 -16 -38 -28 -47 -11 -10 -25 -28
-30 -40 -5 -13 -15 -23 -24 -23 -8 0 -15 -7 -15 -15 0 -9 -11 -21 -25 -27 -14
-6 -25 -19 -25 -30 0 -10 -7 -18 -15 -18 -9 0 -20 -11 -25 -25 -5 -14 -16 -25
-25 -25 -9 0 -20 -11 -24 -24 -5 -13 -19 -26 -30 -29 -12 -3 -21 -12 -21 -21
0 -10 -8 -16 -21 -16 -12 0 -23 -8 -26 -19 -3 -11 -13 -21 -24 -24 -10 -3 -19
-12 -19 -20 0 -8 -10 -22 -23 -30 -19 -12 -22 -22 -19 -50 4 -33 6 -35 45 -39
39 -3 192 -3 345 1 55 1 62 3 62 21 0 14 7 20 21 20 12 0 23 8 26 18 2 10 18
23 34 29 16 6 29 18 29 27 0 9 7 16 15 16 9 0 27 11 40 24 13 14 34 27 45 31
11 3 20 13 20 22 0 8 9 17 20 20 11 3 20 14 20 24 0 12 10 23 25 29 14 5 25
16 25 24 0 7 9 16 21 19 11 3 23 14 26 25 3 11 13 22 23 25 10 3 21 18 25 37
4 20 15 34 26 37 11 3 22 16 25 28 3 13 14 25 25 28 10 3 19 13 19 22 0 9 14
30 30 47 17 16 30 38 30 49 0 10 7 19 15 19 8 0 15 5 15 10 0 6 8 18 18 28 10
10 24 32 31 49 7 17 21 39 32 49 10 9 19 25 19 34 0 10 6 20 14 23 8 3 20 24
27 46 7 23 18 41 25 41 14 0 24 22 24 55 0 14 9 29 20 35 14 8 20 21 20 45 0
21 7 41 19 52 11 10 23 32 27 48 3 17 17 44 30 62 13 17 24 43 24 57 0 14 9
42 19 63 11 21 23 59 26 86 4 26 11 47 15 47 13 0 30 59 30 104 1 23 8 59 16
81 9 22 20 78 26 125 5 47 17 101 26 120 15 30 17 79 20 346 3 276 1 313 -13
327 -18 18 -35 106 -35 181 0 33 -5 53 -16 60 -10 8 -19 38 -25 90 -5 51 -14
82 -24 90 -9 6 -18 34 -22 66 -3 34 -13 62 -24 73 -11 10 -19 32 -19 52 0 24
-6 38 -19 45 -11 5 -22 24 -26 41 -4 17 -18 47 -31 66 -13 20 -24 50 -24 69 0
23 -6 37 -20 44 -11 6 -20 18 -20 26 0 8 -11 30 -25 48 -14 18 -25 40 -25 49
0 10 -7 17 -15 17 -9 0 -20 17 -27 45 -7 25 -18 45 -25 45 -7 0 -16 12 -19 26
-4 14 -17 37 -30 51 -13 14 -24 34 -24 44 0 11 -7 19 -15 19 -9 0 -20 11 -25
25 -5 14 -16 25 -25 25 -8 0 -15 9 -15 20 0 13 -10 24 -25 30 -14 5 -25 15
-25 21 0 7 -11 26 -24 43 -13 17 -26 41 -30 54 -5 15 -13 21 -22 18 -9 -4 -18
4 -24 19 -5 14 -16 25 -24 25 -8 0 -18 9 -21 20 -3 11 -13 20 -21 20 -8 0 -19
11 -24 25 -5 14 -16 25 -25 25 -9 0 -20 11 -25 25 -6 15 -17 25 -30 25 -11 0
-20 6 -20 14 0 8 -17 21 -39 29 -22 9 -41 24 -44 36 -3 12 -13 21 -25 21 -11
0 -22 9 -25 20 -3 12 -14 20 -26 20 -14 0 -21 6 -21 20 0 19 -7 20 -225 20
l-225 0 0 -40z"/>
<path d="M1309 10522 c-5 -13 -9 -115 -9 -228 l0 -204 28 -1 c15 -1 135 -3
267 -3 l240 -2 28 -26 27 -25 0 -1172 c0 -988 -2 -1171 -14 -1171 -7 0 -20 -9
-27 -20 -14 -20 -24 -21 -326 -21 l-313 0 0 -224 c0 -131 4 -226 10 -230 12
-7 1834 -7 1854 1 23 9 27 51 24 259 l-3 190 -125 2 c-69 1 -210 2 -313 2
l-188 1 -14 33 c-12 28 -14 224 -15 1176 0 780 3 1154 10 1181 8 31 16 40 33
41 12 1 105 2 207 3 102 1 215 3 253 4 l67 2 -1 203 c-1 111 -4 213 -8 226
l-7 25 -838 0 -838 1 -9 -23z"/>
<path d="M4848 10510 c-12 -19 -21 -48 -21 -65 0 -16 0 -703 0 -1525 0 -822 0
-1535 0 -1583 0 -82 2 -90 26 -115 l27 -26 365 1 c281 1 370 4 382 14 10 9 70
15 192 19 151 4 180 8 195 23 10 9 18 17 19 17 1 1 36 3 77 7 51 3 82 11 99
24 13 10 34 19 47 19 17 0 25 7 30 25 3 14 11 25 18 24 39 -5 65 3 71 20 3 12
19 21 40 25 21 4 35 13 35 22 0 8 11 20 25 26 14 6 25 15 25 21 0 14 63 71 76
69 6 -1 17 16 24 39 8 22 22 45 32 50 10 5 18 19 18 29 0 11 6 20 14 20 8 0
20 19 27 44 8 27 20 47 31 49 14 4 18 15 18 45 0 23 6 45 15 52 8 6 20 38 26
71 6 32 16 59 21 59 14 0 25 40 37 134 6 49 16 95 23 104 9 10 16 93 24 261 6
135 12 246 14 246 7 0 7 131 0 135 -4 3 -12 134 -17 292 -8 235 -12 291 -25
305 -10 11 -18 49 -22 101 -5 61 -12 89 -25 103 -11 12 -21 41 -23 71 -4 32
-11 54 -21 60 -9 5 -19 25 -22 46 -12 71 -15 82 -29 82 -8 0 -16 16 -20 40 -4
25 -14 43 -26 50 -11 6 -20 19 -20 30 0 10 -9 21 -20 25 -12 4 -22 19 -26 42
-4 23 -13 37 -26 41 -11 2 -24 15 -29 28 -4 13 -15 24 -24 24 -8 0 -15 9 -15
20 0 13 -7 20 -20 20 -11 0 -27 11 -36 25 -9 14 -22 25 -28 25 -7 0 -23 10
-36 22 -21 20 -36 25 -82 27 -9 1 -19 10 -23 20 -4 12 -19 21 -43 26 -20 4
-45 15 -55 26 -13 14 -32 19 -72 19 -40 0 -63 6 -88 23 -31 21 -46 23 -187 26
-116 2 -156 6 -167 17 -17 17 -19 17 -44 3 -15 -7 -24 -7 -34 1 -10 9 -116 12
-370 13 l-356 2 -21 -35z m799 -445 c23 -8 83 -17 133 -19 71 -4 96 -9 116
-25 15 -12 41 -21 61 -21 27 0 35 -5 43 -25 6 -16 17 -25 31 -25 12 0 23 -8
26 -20 3 -11 12 -20 19 -20 8 0 19 -11 24 -25 5 -14 16 -25 25 -25 8 0 15 -7
15 -16 0 -9 9 -18 20 -21 14 -4 24 -19 31 -50 7 -24 20 -48 30 -54 13 -6 19
-21 19 -44 0 -22 6 -37 17 -44 13 -7 19 -29 24 -92 6 -63 12 -86 25 -96 17
-12 19 -44 22 -451 4 -446 -6 -688 -28 -702 -7 -4 -15 -43 -19 -92 -4 -52 -13
-94 -23 -110 -9 -14 -20 -41 -23 -61 -4 -20 -16 -46 -26 -58 -10 -12 -19 -28
-19 -35 0 -7 -8 -15 -17 -18 -18 -6 -43 -49 -43 -73 0 -7 -9 -13 -19 -13 -13
0 -21 -8 -23 -22 -2 -13 -10 -24 -18 -24 -8 -1 -20 -2 -27 -3 -7 0 -20 -9 -30
-20 -10 -10 -35 -24 -55 -30 -21 -7 -41 -18 -45 -25 -5 -8 -34 -15 -72 -18
-44 -3 -67 -10 -76 -21 -10 -14 -35 -17 -156 -18 -208 -2 -205 -2 -215 24 -4
12 -10 549 -13 1192 l-6 1170 24 20 c14 11 34 23 45 26 33 9 157 -1 203 -16z"/>
<path d="M7374 10540 l-29 -5 -3 -1653 c-1 -1128 1 -1659 8 -1673 10 -19 31
-19 961 -19 l951 0 29 29 29 29 0 191 c0 187 0 191 -22 202 -13 7 -29 19 -37
26 -10 11 -28 13 -71 8 -47 -5 -144 -7 -257 -4 -46 1 -909 1 -949 0 -23 -1
-53 3 -68 8 l-26 11 0 525 0 525 23 9 c12 5 290 8 617 8 327 0 605 3 616 7 12
4 25 17 28 29 3 12 6 106 6 209 0 184 0 188 -22 202 -19 12 -123 14 -634 13
-336 0 -616 3 -622 7 -9 5 -12 111 -11 409 1 221 4 413 8 426 l7 25 665 0
c519 1 669 4 681 14 12 10 16 47 17 206 2 186 1 195 -18 201 -11 3 -21 13 -23
22 -3 15 -78 17 -914 17 -500 1 -923 -1 -940 -4z"/>
<path d="M9746 10514 c-8 -39 3 -94 20 -101 8 -3 16 -30 20 -65 4 -32 13 -66
21 -74 8 -8 19 -43 23 -77 9 -67 18 -98 33 -108 5 -3 11 -34 14 -68 3 -34 10
-64 14 -67 5 -3 9 -14 9 -25 0 -10 4 -19 10 -19 5 0 12 -27 16 -61 4 -34 14
-67 23 -76 10 -11 18 -43 22 -91 4 -50 11 -79 21 -86 9 -7 18 -36 23 -74 4
-34 14 -70 23 -78 8 -9 17 -39 19 -67 3 -29 16 -75 29 -103 16 -33 24 -69 24
-102 0 -38 4 -52 14 -52 18 0 23 -13 31 -94 4 -37 14 -74 22 -82 9 -9 18 -42
21 -79 2 -36 9 -65 13 -65 15 0 39 -58 39 -93 0 -53 11 -97 25 -97 8 0 14 -25
19 -72 4 -44 14 -84 26 -103 11 -18 20 -44 20 -57 0 -45 12 -88 25 -88 8 0 14
-24 18 -67 4 -37 10 -69 15 -72 15 -10 32 -72 32 -115 1 -26 10 -56 25 -81 14
-22 25 -53 25 -70 0 -57 12 -105 26 -105 9 0 14 -12 14 -34 0 -55 19 -136 35
-152 8 -9 15 -28 15 -43 0 -47 12 -91 24 -91 8 0 16 -33 23 -86 6 -47 15 -89
21 -93 5 -3 17 -23 25 -43 12 -28 22 -38 39 -39 13 -1 130 -1 260 -1 276 1
292 5 304 76 3 22 13 45 20 51 8 5 17 35 21 65 3 30 14 70 24 87 10 18 22 63
25 100 4 41 13 72 22 79 8 6 17 37 21 77 4 37 14 74 23 84 9 10 19 47 23 86 4
45 11 67 20 67 13 0 35 96 35 153 0 14 7 30 15 34 10 6 18 36 25 88 6 46 16
84 24 90 7 6 17 38 21 73 4 37 13 65 21 70 9 5 18 38 24 91 6 57 15 87 26 95
10 8 19 38 25 90 5 46 14 83 22 90 8 6 18 38 21 71 4 32 14 67 22 77 9 10 20
47 24 87 4 39 14 77 22 85 8 8 18 42 21 75 4 34 15 78 25 99 11 20 22 60 25
87 3 28 15 69 26 92 12 23 21 52 21 65 0 48 13 98 25 98 8 0 15 25 19 70 4 39
10 70 14 70 14 0 32 55 32 98 0 23 9 63 20 87 11 23 22 69 26 102 3 32 13 63
21 69 7 7 18 40 24 75 6 35 18 72 27 82 12 14 18 41 20 96 5 120 22 113 -281
115 l-256 1 -11 -23 c-5 -13 -10 -29 -10 -37 0 -8 -7 -18 -16 -23 -11 -6 -18
-33 -23 -95 -5 -56 -14 -91 -24 -101 -10 -10 -18 -44 -23 -96 -3 -44 -9 -80
-13 -80 -12 0 -30 -56 -36 -119 -4 -35 -15 -78 -25 -95 -11 -19 -20 -62 -23
-110 -4 -49 -11 -82 -19 -87 -7 -5 -18 -45 -24 -95 -7 -48 -17 -90 -24 -94 -7
-4 -15 -36 -19 -71 -4 -35 -14 -80 -24 -99 -9 -19 -20 -50 -24 -69 l-9 -33
-264 0 c-346 0 -330 -1 -330 17 0 8 -9 19 -19 24 -15 9 -20 27 -26 93 -5 55
-13 86 -22 93 -10 8 -18 41 -24 95 -5 55 -13 86 -22 92 -10 5 -17 34 -22 88
-4 50 -12 83 -20 88 -11 6 -35 134 -35 184 0 5 -7 8 -15 8 -8 0 -15 1 -15 3
-2 55 -23 171 -33 182 -8 7 -17 42 -21 76 -4 35 -15 77 -23 93 -9 17 -19 58
-22 91 -5 49 -10 60 -26 64 -11 2 -24 10 -30 18 -9 11 -58 14 -272 16 l-262 2
-5 -31z m1383 -1769 c13 -13 -9 -167 -26 -180 -7 -5 -15 -41 -19 -80 -3 -38
-15 -90 -25 -113 -10 -24 -23 -83 -29 -130 -7 -56 -16 -90 -26 -95 -9 -5 -14
-26 -14 -65 0 -56 -13 -128 -24 -139 -13 -13 -19 10 -27 98 -5 53 -15 99 -23
108 -7 9 -17 51 -21 96 -5 57 -12 85 -25 97 -13 12 -20 40 -25 95 -5 47 -14
88 -25 103 -10 15 -19 53 -23 95 -3 38 -10 71 -16 73 -21 7 -12 40 12 45 46 8
327 1 336 -8z"/>
<path d="M3918 8084 c-9 -10 -40 -19 -70 -22 -36 -3 -62 -12 -81 -28 -16 -13
-37 -24 -47 -24 -10 0 -22 -9 -25 -20 -3 -11 -15 -20 -26 -20 -14 0 -19 -7
-19 -25 0 -15 -6 -25 -15 -25 -8 0 -22 -17 -30 -37 -9 -21 -23 -43 -32 -50
-13 -10 -16 -36 -17 -145 -1 -151 9 -228 29 -228 7 0 16 -11 19 -25 4 -14 12
-25 19 -25 7 0 21 -19 31 -43 14 -34 23 -43 44 -45 15 -1 34 -10 43 -21 8 -10
31 -22 50 -26 19 -4 42 -14 52 -23 13 -12 45 -17 110 -20 82 -4 95 -2 116 17
13 12 36 21 51 21 15 0 39 11 54 25 15 14 38 25 52 25 18 0 24 5 24 21 0 13 8
23 20 26 11 3 23 16 26 29 4 14 11 21 20 17 8 -3 14 1 14 11 0 9 4 24 9 34 44
81 51 110 51 208 0 88 -3 105 -27 153 -16 30 -38 66 -50 79 -13 14 -23 36 -23
48 0 15 -6 24 -16 24 -9 0 -29 11 -45 25 -16 13 -35 22 -42 19 -8 -3 -19 6
-25 21 -10 22 -17 25 -68 25 -41 0 -63 5 -81 20 -31 24 -73 26 -95 4z"/>
</g>
</svg>
